<mxfile host="app.diagrams.net" agent="Mozilla/5.0 (Windows NT 10.0; Win64; x64) AppleWebKit/537.36 (KHTML, like Gecko) Chrome/138.0.0.0 YaBrowser/25.8.0.0 Safari/537.36" version="28.1.2">
  <diagram name="Страница — 1" id="2DYOa_ZJoDetYjfo0d46">
    <mxGraphModel dx="2316" dy="817" grid="1" gridSize="10" guides="1" tooltips="1" connect="1" arrows="1" fold="1" page="1" pageScale="1" pageWidth="827" pageHeight="1169" math="0" shadow="0">
      <root>
        <mxCell id="0" />
        <mxCell id="1" parent="0" />
        <mxCell id="8QUW1PWuyOzQRffvTLw3-3" value="Tanchiki.Navigation" style="swimlane;whiteSpace=wrap;html=1;startSize=50;" parent="1" vertex="1">
          <mxGeometry x="-110" y="170" width="1510" height="870" as="geometry" />
        </mxCell>
        <mxCell id="w1ibGSSZmLzrK6lH3_LJ-1" value="MainMenuManager : MonoBehaviour" style="swimlane;fontStyle=1;align=center;verticalAlign=top;childLayout=stackLayout;horizontal=1;startSize=30;horizontalStack=0;resizeParent=1;resizeParentMax=0;resizeLast=0;collapsible=1;marginBottom=0;whiteSpace=wrap;html=1;" parent="8QUW1PWuyOzQRffvTLw3-3" vertex="1">
          <mxGeometry x="100" y="90" width="386" height="298" as="geometry">
            <mxRectangle x="290" y="210" width="100" height="30" as="alternateBounds" />
          </mxGeometry>
        </mxCell>
        <mxCell id="w1ibGSSZmLzrK6lH3_LJ-2" value="- TEMPLATE_BUILD_INDEX : i&lt;span style=&quot;background-color: transparent; color: light-dark(rgb(0, 0, 0), rgb(255, 255, 255));&quot;&gt;nt&lt;/span&gt;" style="text;strokeColor=none;fillColor=none;align=left;verticalAlign=top;spacingLeft=4;spacingRight=4;overflow=hidden;rotatable=0;points=[[0,0.5],[1,0.5]];portConstraint=eastwest;whiteSpace=wrap;html=1;" parent="w1ibGSSZmLzrK6lH3_LJ-1" vertex="1">
          <mxGeometry y="30" width="386" height="26" as="geometry" />
        </mxCell>
        <mxCell id="8QUW1PWuyOzQRffvTLw3-4" value="- mainMenuPanel : GameObject" style="text;strokeColor=none;fillColor=none;align=left;verticalAlign=top;spacingLeft=4;spacingRight=4;overflow=hidden;rotatable=0;points=[[0,0.5],[1,0.5]];portConstraint=eastwest;whiteSpace=wrap;html=1;" parent="w1ibGSSZmLzrK6lH3_LJ-1" vertex="1">
          <mxGeometry y="56" width="386" height="26" as="geometry" />
        </mxCell>
        <mxCell id="8QUW1PWuyOzQRffvTLw3-6" value="- settingsPanel : GameObject" style="text;strokeColor=none;fillColor=none;align=left;verticalAlign=top;spacingLeft=4;spacingRight=4;overflow=hidden;rotatable=0;points=[[0,0.5],[1,0.5]];portConstraint=eastwest;whiteSpace=wrap;html=1;" parent="w1ibGSSZmLzrK6lH3_LJ-1" vertex="1">
          <mxGeometry y="82" width="386" height="26" as="geometry" />
        </mxCell>
        <mxCell id="8QUW1PWuyOzQRffvTLw3-7" value="- levelSelectPanel : GameObject" style="text;strokeColor=none;fillColor=none;align=left;verticalAlign=top;spacingLeft=4;spacingRight=4;overflow=hidden;rotatable=0;points=[[0,0.5],[1,0.5]];portConstraint=eastwest;whiteSpace=wrap;html=1;" parent="w1ibGSSZmLzrK6lH3_LJ-1" vertex="1">
          <mxGeometry y="108" width="386" height="26" as="geometry" />
        </mxCell>
        <mxCell id="w1ibGSSZmLzrK6lH3_LJ-3" value="" style="line;strokeWidth=1;fillColor=none;align=left;verticalAlign=middle;spacingTop=-1;spacingLeft=3;spacingRight=3;rotatable=0;labelPosition=right;points=[];portConstraint=eastwest;strokeColor=inherit;" parent="w1ibGSSZmLzrK6lH3_LJ-1" vertex="1">
          <mxGeometry y="134" width="386" height="8" as="geometry" />
        </mxCell>
        <mxCell id="w1ibGSSZmLzrK6lH3_LJ-4" value="+ OpenLevelSelect() : void" style="text;strokeColor=none;fillColor=none;align=left;verticalAlign=top;spacingLeft=4;spacingRight=4;overflow=hidden;rotatable=0;points=[[0,0.5],[1,0.5]];portConstraint=eastwest;whiteSpace=wrap;html=1;" parent="w1ibGSSZmLzrK6lH3_LJ-1" vertex="1">
          <mxGeometry y="142" width="386" height="26" as="geometry" />
        </mxCell>
        <mxCell id="8QUW1PWuyOzQRffvTLw3-8" value="+ OpenMainMenu() : void" style="text;strokeColor=none;fillColor=none;align=left;verticalAlign=top;spacingLeft=4;spacingRight=4;overflow=hidden;rotatable=0;points=[[0,0.5],[1,0.5]];portConstraint=eastwest;whiteSpace=wrap;html=1;" parent="w1ibGSSZmLzrK6lH3_LJ-1" vertex="1">
          <mxGeometry y="168" width="386" height="26" as="geometry" />
        </mxCell>
        <mxCell id="8QUW1PWuyOzQRffvTLw3-9" value="+ OpenSettings() : void" style="text;strokeColor=none;fillColor=none;align=left;verticalAlign=top;spacingLeft=4;spacingRight=4;overflow=hidden;rotatable=0;points=[[0,0.5],[1,0.5]];portConstraint=eastwest;whiteSpace=wrap;html=1;" parent="w1ibGSSZmLzrK6lH3_LJ-1" vertex="1">
          <mxGeometry y="194" width="386" height="26" as="geometry" />
        </mxCell>
        <mxCell id="8QUW1PWuyOzQRffvTLw3-49" value="+ StartGame(int levelBuildIndex) : void" style="text;strokeColor=none;fillColor=none;align=left;verticalAlign=top;spacingLeft=4;spacingRight=4;overflow=hidden;rotatable=0;points=[[0,0.5],[1,0.5]];portConstraint=eastwest;whiteSpace=wrap;html=1;" parent="w1ibGSSZmLzrK6lH3_LJ-1" vertex="1">
          <mxGeometry y="220" width="386" height="26" as="geometry" />
        </mxCell>
        <mxCell id="8QUW1PWuyOzQRffvTLw3-71" style="edgeStyle=orthogonalEdgeStyle;rounded=0;orthogonalLoop=1;jettySize=auto;html=1;entryX=0;entryY=0.5;entryDx=0;entryDy=0;" parent="w1ibGSSZmLzrK6lH3_LJ-1" source="8QUW1PWuyOzQRffvTLw3-53" target="8QUW1PWuyOzQRffvTLw3-49" edge="1">
          <mxGeometry relative="1" as="geometry">
            <Array as="points">
              <mxPoint x="-10" y="259" />
              <mxPoint x="-10" y="233" />
            </Array>
          </mxGeometry>
        </mxCell>
        <mxCell id="8QUW1PWuyOzQRffvTLw3-53" value="+ StartTemplateLevel() : void" style="text;strokeColor=none;fillColor=none;align=left;verticalAlign=top;spacingLeft=4;spacingRight=4;overflow=hidden;rotatable=0;points=[[0,0.5],[1,0.5]];portConstraint=eastwest;whiteSpace=wrap;html=1;" parent="w1ibGSSZmLzrK6lH3_LJ-1" vertex="1">
          <mxGeometry y="246" width="386" height="26" as="geometry" />
        </mxCell>
        <mxCell id="8QUW1PWuyOzQRffvTLw3-58" value="+ ResetProgress() : void" style="text;strokeColor=none;fillColor=none;align=left;verticalAlign=top;spacingLeft=4;spacingRight=4;overflow=hidden;rotatable=0;points=[[0,0.5],[1,0.5]];portConstraint=eastwest;whiteSpace=wrap;html=1;" parent="w1ibGSSZmLzrK6lH3_LJ-1" vertex="1">
          <mxGeometry y="272" width="386" height="26" as="geometry" />
        </mxCell>
        <mxCell id="8QUW1PWuyOzQRffvTLw3-10" value="LoadingScreen : MonoBehaviour" style="swimlane;fontStyle=1;align=center;verticalAlign=top;childLayout=stackLayout;horizontal=1;startSize=26;horizontalStack=0;resizeParent=1;resizeParentMax=0;resizeLast=0;collapsible=1;marginBottom=0;whiteSpace=wrap;html=1;" parent="8QUW1PWuyOzQRffvTLw3-3" vertex="1">
          <mxGeometry x="840" y="350" width="280" height="190" as="geometry" />
        </mxCell>
        <mxCell id="8QUW1PWuyOzQRffvTLw3-11" value="+ Screen : GameObject" style="text;strokeColor=none;fillColor=none;align=left;verticalAlign=top;spacingLeft=4;spacingRight=4;overflow=hidden;rotatable=0;points=[[0,0.5],[1,0.5]];portConstraint=eastwest;whiteSpace=wrap;html=1;" parent="8QUW1PWuyOzQRffvTLw3-10" vertex="1">
          <mxGeometry y="26" width="280" height="26" as="geometry" />
        </mxCell>
        <mxCell id="8QUW1PWuyOzQRffvTLw3-14" value="+ ScaleSlider : GameObject" style="text;strokeColor=none;fillColor=none;align=left;verticalAlign=top;spacingLeft=4;spacingRight=4;overflow=hidden;rotatable=0;points=[[0,0.5],[1,0.5]];portConstraint=eastwest;whiteSpace=wrap;html=1;" parent="8QUW1PWuyOzQRffvTLw3-10" vertex="1">
          <mxGeometry y="52" width="280" height="26" as="geometry" />
        </mxCell>
        <mxCell id="8QUW1PWuyOzQRffvTLw3-15" value="+ Instance : LoadingScreen" style="text;strokeColor=none;fillColor=none;align=left;verticalAlign=top;spacingLeft=4;spacingRight=4;overflow=hidden;rotatable=0;points=[[0,0.5],[1,0.5]];portConstraint=eastwest;whiteSpace=wrap;html=1;fontStyle=4" parent="8QUW1PWuyOzQRffvTLw3-10" vertex="1">
          <mxGeometry y="78" width="280" height="26" as="geometry" />
        </mxCell>
        <mxCell id="8QUW1PWuyOzQRffvTLw3-12" value="" style="line;strokeWidth=1;fillColor=none;align=left;verticalAlign=middle;spacingTop=-1;spacingLeft=3;spacingRight=3;rotatable=0;labelPosition=right;points=[];portConstraint=eastwest;strokeColor=inherit;" parent="8QUW1PWuyOzQRffvTLw3-10" vertex="1">
          <mxGeometry y="104" width="280" height="8" as="geometry" />
        </mxCell>
        <mxCell id="8QUW1PWuyOzQRffvTLw3-13" value="- Awake() : void" style="text;strokeColor=none;fillColor=none;align=left;verticalAlign=top;spacingLeft=4;spacingRight=4;overflow=hidden;rotatable=0;points=[[0,0.5],[1,0.5]];portConstraint=eastwest;whiteSpace=wrap;html=1;" parent="8QUW1PWuyOzQRffvTLw3-10" vertex="1">
          <mxGeometry y="112" width="280" height="26" as="geometry" />
        </mxCell>
        <mxCell id="8QUW1PWuyOzQRffvTLw3-16" value="+ Load(sceneBuildIndex : int) : void" style="text;strokeColor=none;fillColor=none;align=left;verticalAlign=top;spacingLeft=4;spacingRight=4;overflow=hidden;rotatable=0;points=[[0,0.5],[1,0.5]];portConstraint=eastwest;whiteSpace=wrap;html=1;" parent="8QUW1PWuyOzQRffvTLw3-10" vertex="1">
          <mxGeometry y="138" width="280" height="26" as="geometry" />
        </mxCell>
        <mxCell id="8QUW1PWuyOzQRffvTLw3-17" value="+ LoadAsync(sceneBuildIndex : int) : IEnumerator" style="text;strokeColor=none;fillColor=none;align=left;verticalAlign=top;spacingLeft=4;spacingRight=4;overflow=hidden;rotatable=0;points=[[0,0.5],[1,0.5]];portConstraint=eastwest;whiteSpace=wrap;html=1;" parent="8QUW1PWuyOzQRffvTLw3-10" vertex="1">
          <mxGeometry y="164" width="280" height="26" as="geometry" />
        </mxCell>
        <mxCell id="8QUW1PWuyOzQRffvTLw3-78" style="edgeStyle=orthogonalEdgeStyle;rounded=0;orthogonalLoop=1;jettySize=auto;html=1;entryX=0.001;entryY=0.821;entryDx=0;entryDy=0;entryPerimeter=0;" parent="8QUW1PWuyOzQRffvTLw3-10" source="8QUW1PWuyOzQRffvTLw3-16" target="8QUW1PWuyOzQRffvTLw3-17" edge="1">
          <mxGeometry relative="1" as="geometry" />
        </mxCell>
        <mxCell id="8QUW1PWuyOzQRffvTLw3-22" value="LevelShower : MonoBehaviour" style="swimlane;fontStyle=1;align=center;verticalAlign=top;childLayout=stackLayout;horizontal=1;startSize=26;horizontalStack=0;resizeParent=1;resizeParentMax=0;resizeLast=0;collapsible=1;marginBottom=0;whiteSpace=wrap;html=1;" parent="8QUW1PWuyOzQRffvTLw3-3" vertex="1">
          <mxGeometry x="40" y="470" width="290" height="216" as="geometry" />
        </mxCell>
        <mxCell id="8QUW1PWuyOzQRffvTLw3-23" value="+ Levels : List&amp;lt;Level&amp;gt;" style="text;strokeColor=none;fillColor=none;align=left;verticalAlign=top;spacingLeft=4;spacingRight=4;overflow=hidden;rotatable=0;points=[[0,0.5],[1,0.5]];portConstraint=eastwest;whiteSpace=wrap;html=1;" parent="8QUW1PWuyOzQRffvTLw3-22" vertex="1">
          <mxGeometry y="26" width="290" height="26" as="geometry" />
        </mxCell>
        <mxCell id="8QUW1PWuyOzQRffvTLw3-26" value="+ ButtonPrefab : GameObject" style="text;strokeColor=none;fillColor=none;align=left;verticalAlign=top;spacingLeft=4;spacingRight=4;overflow=hidden;rotatable=0;points=[[0,0.5],[1,0.5]];portConstraint=eastwest;whiteSpace=wrap;html=1;" parent="8QUW1PWuyOzQRffvTLw3-22" vertex="1">
          <mxGeometry y="52" width="290" height="26" as="geometry" />
        </mxCell>
        <mxCell id="8QUW1PWuyOzQRffvTLw3-27" value="+ SpawnTransform : Transform" style="text;strokeColor=none;fillColor=none;align=left;verticalAlign=top;spacingLeft=4;spacingRight=4;overflow=hidden;rotatable=0;points=[[0,0.5],[1,0.5]];portConstraint=eastwest;whiteSpace=wrap;html=1;" parent="8QUW1PWuyOzQRffvTLw3-22" vertex="1">
          <mxGeometry y="78" width="290" height="26" as="geometry" />
        </mxCell>
        <mxCell id="8QUW1PWuyOzQRffvTLw3-28" value="-&amp;nbsp;initializedButtons : List&amp;lt;Button&amp;gt;" style="text;strokeColor=none;fillColor=none;align=left;verticalAlign=top;spacingLeft=4;spacingRight=4;overflow=hidden;rotatable=0;points=[[0,0.5],[1,0.5]];portConstraint=eastwest;whiteSpace=wrap;html=1;" parent="8QUW1PWuyOzQRffvTLw3-22" vertex="1">
          <mxGeometry y="104" width="290" height="26" as="geometry" />
        </mxCell>
        <mxCell id="8QUW1PWuyOzQRffvTLw3-24" value="" style="line;strokeWidth=1;fillColor=none;align=left;verticalAlign=middle;spacingTop=-1;spacingLeft=3;spacingRight=3;rotatable=0;labelPosition=right;points=[];portConstraint=eastwest;strokeColor=inherit;" parent="8QUW1PWuyOzQRffvTLw3-22" vertex="1">
          <mxGeometry y="130" width="290" height="8" as="geometry" />
        </mxCell>
        <mxCell id="8QUW1PWuyOzQRffvTLw3-25" value="- OnEnable() : void" style="text;strokeColor=none;fillColor=none;align=left;verticalAlign=top;spacingLeft=4;spacingRight=4;overflow=hidden;rotatable=0;points=[[0,0.5],[1,0.5]];portConstraint=eastwest;whiteSpace=wrap;html=1;" parent="8QUW1PWuyOzQRffvTLw3-22" vertex="1">
          <mxGeometry y="138" width="290" height="26" as="geometry" />
        </mxCell>
        <mxCell id="8QUW1PWuyOzQRffvTLw3-30" value="- RefreshButtons() : void" style="text;strokeColor=none;fillColor=none;align=left;verticalAlign=top;spacingLeft=4;spacingRight=4;overflow=hidden;rotatable=0;points=[[0,0.5],[1,0.5]];portConstraint=eastwest;whiteSpace=wrap;html=1;" parent="8QUW1PWuyOzQRffvTLw3-22" vertex="1">
          <mxGeometry y="164" width="290" height="26" as="geometry" />
        </mxCell>
        <mxCell id="8QUW1PWuyOzQRffvTLw3-29" value="- OnDisable() : void" style="text;strokeColor=none;fillColor=none;align=left;verticalAlign=top;spacingLeft=4;spacingRight=4;overflow=hidden;rotatable=0;points=[[0,0.5],[1,0.5]];portConstraint=eastwest;whiteSpace=wrap;html=1;" parent="8QUW1PWuyOzQRffvTLw3-22" vertex="1">
          <mxGeometry y="190" width="290" height="26" as="geometry" />
        </mxCell>
        <mxCell id="8QUW1PWuyOzQRffvTLw3-33" value="Classname" style="swimlane;fontStyle=1;align=center;verticalAlign=top;childLayout=stackLayout;horizontal=1;startSize=26;horizontalStack=0;resizeParent=1;resizeParentMax=0;resizeLast=0;collapsible=1;marginBottom=0;whiteSpace=wrap;html=1;" parent="8QUW1PWuyOzQRffvTLw3-3" vertex="1">
          <mxGeometry x="1030" y="190" width="160" height="86" as="geometry" />
        </mxCell>
        <mxCell id="8QUW1PWuyOzQRffvTLw3-34" value="+ field: type" style="text;strokeColor=none;fillColor=none;align=left;verticalAlign=top;spacingLeft=4;spacingRight=4;overflow=hidden;rotatable=0;points=[[0,0.5],[1,0.5]];portConstraint=eastwest;whiteSpace=wrap;html=1;" parent="8QUW1PWuyOzQRffvTLw3-33" vertex="1">
          <mxGeometry y="26" width="160" height="26" as="geometry" />
        </mxCell>
        <mxCell id="8QUW1PWuyOzQRffvTLw3-35" value="" style="line;strokeWidth=1;fillColor=none;align=left;verticalAlign=middle;spacingTop=-1;spacingLeft=3;spacingRight=3;rotatable=0;labelPosition=right;points=[];portConstraint=eastwest;strokeColor=inherit;" parent="8QUW1PWuyOzQRffvTLw3-33" vertex="1">
          <mxGeometry y="52" width="160" height="8" as="geometry" />
        </mxCell>
        <mxCell id="8QUW1PWuyOzQRffvTLw3-36" value="+ method(type): type" style="text;strokeColor=none;fillColor=none;align=left;verticalAlign=top;spacingLeft=4;spacingRight=4;overflow=hidden;rotatable=0;points=[[0,0.5],[1,0.5]];portConstraint=eastwest;whiteSpace=wrap;html=1;" parent="8QUW1PWuyOzQRffvTLw3-33" vertex="1">
          <mxGeometry y="60" width="160" height="26" as="geometry" />
        </mxCell>
        <mxCell id="8QUW1PWuyOzQRffvTLw3-37" value="MainMenuUI" style="html=1;whiteSpace=wrap;" parent="8QUW1PWuyOzQRffvTLw3-3" vertex="1">
          <mxGeometry x="540" y="440" width="110" height="50" as="geometry" />
        </mxCell>
        <mxCell id="8QUW1PWuyOzQRffvTLw3-47" style="edgeStyle=orthogonalEdgeStyle;rounded=0;orthogonalLoop=1;jettySize=auto;html=1;entryX=0;entryY=0.5;entryDx=0;entryDy=0;" parent="8QUW1PWuyOzQRffvTLw3-3" source="8QUW1PWuyOzQRffvTLw3-38" target="8QUW1PWuyOzQRffvTLw3-8" edge="1">
          <mxGeometry relative="1" as="geometry">
            <Array as="points">
              <mxPoint x="705" y="400" />
              <mxPoint x="80" y="400" />
              <mxPoint x="80" y="271" />
            </Array>
          </mxGeometry>
        </mxCell>
        <mxCell id="8QUW1PWuyOzQRffvTLw3-38" value="MainMenu&lt;br&gt;EventSystem" style="html=1;whiteSpace=wrap;" parent="8QUW1PWuyOzQRffvTLw3-3" vertex="1">
          <mxGeometry x="650" y="325" width="110" height="50" as="geometry" />
        </mxCell>
        <mxCell id="8QUW1PWuyOzQRffvTLw3-40" style="edgeStyle=orthogonalEdgeStyle;rounded=0;orthogonalLoop=1;jettySize=auto;html=1;" parent="8QUW1PWuyOzQRffvTLw3-3" source="w1ibGSSZmLzrK6lH3_LJ-4" target="8QUW1PWuyOzQRffvTLw3-37" edge="1">
          <mxGeometry relative="1" as="geometry" />
        </mxCell>
        <mxCell id="8QUW1PWuyOzQRffvTLw3-41" style="edgeStyle=orthogonalEdgeStyle;rounded=0;orthogonalLoop=1;jettySize=auto;html=1;entryX=0;entryY=0.25;entryDx=0;entryDy=0;" parent="8QUW1PWuyOzQRffvTLw3-3" source="8QUW1PWuyOzQRffvTLw3-8" target="8QUW1PWuyOzQRffvTLw3-37" edge="1">
          <mxGeometry relative="1" as="geometry">
            <mxPoint x="529.9999999999995" y="350" as="targetPoint" />
          </mxGeometry>
        </mxCell>
        <mxCell id="8QUW1PWuyOzQRffvTLw3-42" style="edgeStyle=orthogonalEdgeStyle;rounded=0;orthogonalLoop=1;jettySize=auto;html=1;entryX=0;entryY=0.75;entryDx=0;entryDy=0;" parent="8QUW1PWuyOzQRffvTLw3-3" source="8QUW1PWuyOzQRffvTLw3-9" target="8QUW1PWuyOzQRffvTLw3-37" edge="1">
          <mxGeometry relative="1" as="geometry">
            <mxPoint x="519.9999999999995" y="350" as="targetPoint" />
          </mxGeometry>
        </mxCell>
        <mxCell id="8QUW1PWuyOzQRffvTLw3-44" style="edgeStyle=orthogonalEdgeStyle;rounded=0;orthogonalLoop=1;jettySize=auto;html=1;entryX=0.5;entryY=1;entryDx=0;entryDy=0;" parent="8QUW1PWuyOzQRffvTLw3-3" source="8QUW1PWuyOzQRffvTLw3-30" target="8QUW1PWuyOzQRffvTLw3-37" edge="1">
          <mxGeometry relative="1" as="geometry" />
        </mxCell>
        <mxCell id="8QUW1PWuyOzQRffvTLw3-56" value="" style="endArrow=classic;html=1;rounded=0;entryX=0;entryY=0.5;entryDx=0;entryDy=0;" parent="8QUW1PWuyOzQRffvTLw3-3" target="w1ibGSSZmLzrK6lH3_LJ-4" edge="1">
          <mxGeometry width="50" height="50" relative="1" as="geometry">
            <mxPoint x="80" y="270" as="sourcePoint" />
            <mxPoint x="100" y="210" as="targetPoint" />
            <Array as="points">
              <mxPoint x="80" y="245" />
            </Array>
          </mxGeometry>
        </mxCell>
        <mxCell id="8QUW1PWuyOzQRffvTLw3-55" value="" style="endArrow=classic;html=1;rounded=0;entryX=0;entryY=0.5;entryDx=0;entryDy=0;" parent="1" target="8QUW1PWuyOzQRffvTLw3-9" edge="1">
          <mxGeometry width="50" height="50" relative="1" as="geometry">
            <mxPoint x="-30" y="467" as="sourcePoint" />
            <mxPoint x="540" y="530" as="targetPoint" />
          </mxGeometry>
        </mxCell>
        <mxCell id="8QUW1PWuyOzQRffvTLw3-59" value="Tanchiki.GameManagers" style="swimlane;whiteSpace=wrap;html=1;" parent="1" vertex="1">
          <mxGeometry x="-100" y="1130" width="1430" height="380" as="geometry" />
        </mxCell>
        <mxCell id="8QUW1PWuyOzQRffvTLw3-60" value="LevelManager" style="swimlane;fontStyle=5;align=center;verticalAlign=top;childLayout=stackLayout;horizontal=1;startSize=26;horizontalStack=0;resizeParent=1;resizeParentMax=0;resizeLast=0;collapsible=1;marginBottom=0;whiteSpace=wrap;html=1;" parent="8QUW1PWuyOzQRffvTLw3-59" vertex="1">
          <mxGeometry x="180" y="90" width="510" height="164" as="geometry" />
        </mxCell>
        <mxCell id="8QUW1PWuyOzQRffvTLw3-61" value="- currentLevel : int" style="text;strokeColor=none;fillColor=none;align=left;verticalAlign=top;spacingLeft=4;spacingRight=4;overflow=hidden;rotatable=0;points=[[0,0.5],[1,0.5]];portConstraint=eastwest;whiteSpace=wrap;html=1;fontStyle=4" parent="8QUW1PWuyOzQRffvTLw3-60" vertex="1">
          <mxGeometry y="26" width="510" height="26" as="geometry" />
        </mxCell>
        <mxCell id="8QUW1PWuyOzQRffvTLw3-62" value="" style="line;strokeWidth=1;fillColor=none;align=left;verticalAlign=middle;spacingTop=-1;spacingLeft=3;spacingRight=3;rotatable=0;labelPosition=right;points=[];portConstraint=eastwest;strokeColor=inherit;" parent="8QUW1PWuyOzQRffvTLw3-60" vertex="1">
          <mxGeometry y="52" width="510" height="8" as="geometry" />
        </mxCell>
        <mxCell id="8QUW1PWuyOzQRffvTLw3-63" value="# SetCurrentLevel(level : int) : void" style="text;strokeColor=none;fillColor=none;align=left;verticalAlign=top;spacingLeft=4;spacingRight=4;overflow=hidden;rotatable=0;points=[[0,0.5],[1,0.5]];portConstraint=eastwest;whiteSpace=wrap;html=1;fontStyle=4" parent="8QUW1PWuyOzQRffvTLw3-60" vertex="1">
          <mxGeometry y="60" width="510" height="26" as="geometry" />
        </mxCell>
        <mxCell id="8QUW1PWuyOzQRffvTLw3-64" value="# CompleteLevel() : void" style="text;strokeColor=none;fillColor=none;align=left;verticalAlign=top;spacingLeft=4;spacingRight=4;overflow=hidden;rotatable=0;points=[[0,0.5],[1,0.5]];portConstraint=eastwest;whiteSpace=wrap;html=1;fontStyle=4" parent="8QUW1PWuyOzQRffvTLw3-60" vertex="1">
          <mxGeometry y="86" width="510" height="26" as="geometry" />
        </mxCell>
        <mxCell id="8QUW1PWuyOzQRffvTLw3-65" value="# ResetProgress() : void" style="text;strokeColor=none;fillColor=none;align=left;verticalAlign=top;spacingLeft=4;spacingRight=4;overflow=hidden;rotatable=0;points=[[0,0.5],[1,0.5]];portConstraint=eastwest;whiteSpace=wrap;html=1;fontStyle=4" parent="8QUW1PWuyOzQRffvTLw3-60" vertex="1">
          <mxGeometry y="112" width="510" height="26" as="geometry" />
        </mxCell>
        <mxCell id="8QUW1PWuyOzQRffvTLw3-66" value="# StartLevel(sceneBuildIndex : int, displayLevelIndex : int) : void" style="text;strokeColor=none;fillColor=none;align=left;verticalAlign=top;spacingLeft=4;spacingRight=4;overflow=hidden;rotatable=0;points=[[0,0.5],[1,0.5]];portConstraint=eastwest;whiteSpace=wrap;html=1;fontStyle=4" parent="8QUW1PWuyOzQRffvTLw3-60" vertex="1">
          <mxGeometry y="138" width="510" height="26" as="geometry" />
        </mxCell>
        <mxCell id="8QUW1PWuyOzQRffvTLw3-67" value="YG2.saves" style="html=1;whiteSpace=wrap;" parent="1" vertex="1">
          <mxGeometry x="-400" y="1000" width="110" height="50" as="geometry" />
        </mxCell>
        <mxCell id="8QUW1PWuyOzQRffvTLw3-69" style="edgeStyle=orthogonalEdgeStyle;rounded=0;orthogonalLoop=1;jettySize=auto;html=1;entryX=0.5;entryY=1;entryDx=0;entryDy=0;" parent="1" source="8QUW1PWuyOzQRffvTLw3-65" target="8QUW1PWuyOzQRffvTLw3-67" edge="1">
          <mxGeometry relative="1" as="geometry" />
        </mxCell>
        <mxCell id="8QUW1PWuyOzQRffvTLw3-72" style="edgeStyle=orthogonalEdgeStyle;rounded=0;orthogonalLoop=1;jettySize=auto;html=1;entryX=0;entryY=0.5;entryDx=0;entryDy=0;" parent="1" source="8QUW1PWuyOzQRffvTLw3-49" target="8QUW1PWuyOzQRffvTLw3-66" edge="1">
          <mxGeometry relative="1" as="geometry" />
        </mxCell>
        <mxCell id="8QUW1PWuyOzQRffvTLw3-73" style="edgeStyle=orthogonalEdgeStyle;rounded=0;orthogonalLoop=1;jettySize=auto;html=1;entryX=0;entryY=0.5;entryDx=0;entryDy=0;" parent="1" source="8QUW1PWuyOzQRffvTLw3-66" target="8QUW1PWuyOzQRffvTLw3-16" edge="1">
          <mxGeometry relative="1" as="geometry" />
        </mxCell>
      </root>
    </mxGraphModel>
  </diagram>
</mxfile>
